<?xml version="1.0" standalone="no"?>
<!DOCTYPE svg PUBLIC "-//W3C//DTD SVG 20010904//EN"
 "http://www.w3.org/TR/2001/REC-SVG-20010904/DTD/svg10.dtd">
<svg version="1.0" xmlns="http://www.w3.org/2000/svg"
 width="508.000000pt" height="349.000000pt" viewBox="0 0 508.000000 349.000000"
 preserveAspectRatio="xMidYMid meet">

<g transform="translate(0.000000,349.000000) scale(0.100000,-0.100000)"
fill="#000000" stroke="none">
<path d="M1089 2056 c-99 -26 -184 -98 -231 -195 -19 -37 -23 -63 -23 -136 0
-82 3 -97 33 -157 46 -93 163 -191 208 -174 25 10 15 32 -24 49 -59 26 -118
82 -146 139 -33 67 -33 78 3 78 26 0 30 -4 33 -32 l3 -33 60 0 60 0 3 94 3 94
-38 41 c-79 84 -87 96 -76 107 7 7 29 -10 72 -57 l61 -67 0 -97 0 -98 108 -4
c110 -5 127 -2 117 23 -4 12 -24 14 -100 11 l-95 -4 0 90 c0 67 -4 93 -15 102
-20 17 -19 33 5 55 23 21 50 14 57 -16 4 -14 12 -19 27 -17 27 4 34 36 9 45
-39 14 -53 35 -53 84 l0 48 37 3 c27 2 39 8 41 21 3 14 -4 17 -45 16 -26 0
-69 -6 -94 -13z m31 -79 c0 -34 -6 -49 -28 -70 l-28 -27 -39 40 c-21 22 -37
41 -34 43 2 1 12 9 21 16 17 12 84 40 101 41 4 0 7 -19 7 -43z m-165 -107 c16
-18 17 -23 4 -46 -7 -15 -24 -30 -37 -35 -15 -6 -22 -16 -20 -27 4 -19 48 -30
48 -12 0 7 10 25 21 42 l21 29 24 -22 c21 -20 24 -31 24 -101 l0 -78 -35 0
c-33 0 -35 2 -35 35 l0 35 -51 0 -52 0 6 54 c6 57 39 146 55 146 5 0 17 -9 27
-20z"/>
<path d="M1259 2054 c-18 -22 0 -48 37 -54 24 -4 30 -11 32 -38 3 -31 2 -32
-36 -32 l-39 0 -6 -62 c-6 -66 1 -85 27 -75 12 5 14 17 9 57 -6 49 -5 50 21
50 25 0 26 -2 26 -53 0 -48 -3 -56 -39 -91 -39 -38 -40 -38 -96 -31 -55 6 -57
6 -53 -17 3 -22 7 -23 63 -20 42 3 66 10 81 23 20 19 21 19 42 -4 18 -19 22
-35 22 -87 0 -55 4 -68 26 -91 l26 -27 -53 -36 c-30 -20 -61 -36 -69 -36 -9 0
-31 16 -50 35 -27 28 -42 35 -72 35 -34 0 -38 3 -38 25 0 24 2 25 63 25 49 0
68 -4 80 -18 10 -10 17 -24 17 -30 0 -16 16 -23 34 -16 22 8 20 41 -3 49 -10
3 -26 14 -36 25 -15 17 -31 20 -102 20 -77 0 -83 -1 -83 -21 0 -18 -5 -20 -42
-17 -37 3 -43 0 -43 -17 0 -17 6 -20 43 -17 37 3 42 1 42 -17 0 -18 6 -21 48
-21 38 0 53 -5 70 -23 28 -29 20 -37 -35 -37 -37 0 -43 -3 -43 -21 0 -21 3
-22 71 -16 169 14 306 144 325 309 13 111 -50 255 -138 316 -22 15 -52 37 -68
50 -33 26 -43 27 -61 6z m150 -131 c36 -44 38 -53 11 -53 -18 0 -20 -7 -22
-60 -1 -33 -2 -68 -2 -77 -1 -12 6 -18 19 -18 18 0 20 7 20 64 0 75 17 91 36
34 20 -59 16 -150 -10 -210 -32 -72 -44 -80 -70 -47 -12 15 -21 35 -21 45 0
15 7 19 32 17 28 -3 34 1 36 21 4 22 1 23 -32 17 -33 -6 -36 -5 -36 17 0 13
-9 36 -20 50 -24 30 -25 37 -5 37 12 0 15 18 15 100 0 55 4 100 9 100 5 0 23
-17 40 -37z"/>
<path d="M1811 2026 c-34 -19 -50 -54 -51 -108 0 -41 -3 -47 -22 -50 -17 -2
-24 -11 -26 -30 -3 -24 0 -28 22 -28 l25 0 3 -107 c3 -108 3 -108 28 -108 25
0 25 0 28 108 l3 107 34 0 c32 0 35 2 35 30 0 28 -3 30 -35 30 -35 0 -35 0
-35 44 0 27 6 48 15 56 19 16 71 15 102 -1 22 -12 23 -16 25 -193 l3 -181 25
0 25 0 0 220 0 220 -24 3 c-13 2 -27 -2 -31 -8 -6 -9 -13 -9 -28 -1 -28 15
-92 13 -121 -3z"/>
<path d="M2955 2031 c-39 -17 -58 -50 -63 -106 -4 -46 -8 -55 -23 -55 -14 0
-19 -7 -19 -30 0 -23 4 -30 20 -30 19 0 20 -7 20 -104 0 -85 3 -105 16 -110
42 -16 44 -11 44 103 l0 110 38 3 c32 3 37 6 37 28 0 22 -5 25 -37 28 -37 3
-38 4 -38 42 0 52 22 72 72 68 30 -2 42 2 50 16 7 12 7 21 0 28 -14 14 -92 20
-117 9z"/>
<path d="M2151 1852 c-93 -50 -92 -185 1 -242 88 -54 208 15 208 119 0 111
-111 175 -209 123z m126 -64 c51 -48 15 -138 -56 -138 -47 0 -81 32 -81 79 0
72 84 109 137 59z"/>
<path d="M2390 1862 c0 -19 108 -267 116 -267 5 0 27 37 48 83 22 45 42 82 46
82 3 0 24 -37 46 -82 21 -46 43 -83 48 -83 5 0 31 53 58 119 67 166 65 156 29
156 -27 0 -31 -5 -50 -57 -12 -32 -27 -71 -35 -88 l-13 -29 -33 82 c-23 55
-39 82 -50 82 -11 0 -27 -27 -50 -82 l-33 -82 -13 29 c-8 17 -23 56 -35 88
-19 52 -23 57 -50 57 -16 0 -29 -4 -29 -8z"/>
<path d="M3133 1851 c-89 -56 -83 -200 10 -244 149 -71 276 114 157 228 -40
38 -120 46 -167 16z m137 -69 c11 -13 20 -37 20 -52 0 -35 -32 -76 -64 -82
-37 -7 -81 16 -96 51 -35 87 82 157 140 83z"/>
<path d="M3404 1857 c-2 -7 -3 -69 -2 -138 l3 -124 28 -3 27 -3 0 94 c0 110
12 130 81 131 39 1 73 25 57 41 -15 15 -78 16 -106 2 -26 -12 -32 -13 -36 -1
-7 18 -45 18 -52 1z"/>
<path d="M3713 1851 c-57 -36 -77 -99 -48 -155 19 -36 19 -34 -7 -38 -46 -6
-26 -98 20 -98 10 0 6 -8 -12 -25 -42 -39 -31 -91 24 -120 39 -20 133 -19 177
2 65 30 81 114 29 148 -12 8 -60 20 -107 26 -81 10 -114 23 -104 40 3 4 36 5
73 2 63 -5 70 -4 99 21 38 32 52 85 35 130 -10 25 -9 32 3 39 24 13 18 37 -9
37 -12 0 -50 3 -82 6 -48 4 -65 2 -91 -15z m110 -59 c35 -31 15 -95 -33 -107
-58 -14 -106 69 -62 107 33 29 60 29 95 0z m6 -263 c58 -20 36 -65 -38 -75
-67 -9 -116 37 -79 74 15 15 75 16 117 1z"/>
<path d="M4024 1851 c-60 -36 -81 -127 -44 -188 40 -67 109 -87 184 -55 43 19
58 43 37 56 -5 3 -26 -1 -46 -10 -41 -17 -79 -12 -107 13 -38 34 -23 42 80 45
l97 3 3 27 c11 93 -118 162 -204 109z m122 -56 c14 -14 22 -30 19 -35 -3 -6
-35 -10 -70 -10 -35 0 -67 4 -70 10 -10 16 42 60 70 60 14 0 37 -11 51 -25z"/>
</g>
</svg>
